<svg xmlns="http://www.w3.org/2000/svg" data-name="Layer 1" viewBox="0 0 100 100" x="0px" y="0px">
<path d="M19.83,33.5a2,2,0,0,0-2,2V49H8.5a2,2,0,0,0-2,2V70a2,2,0,0,0,2,2h9.33V85.5a2,2,0,0,0,2,2h60a2,2,0,0,0,2-2V72H91.5a2,2,0,0,0,2-2V51a2,2,0,0,0-2-2H81.83V35.5a2,2,0,0,0-2-2h-28V28.28a8,8,0,1,0-4-.09V33.5ZM10.5,68V53h7.33V68Zm79-15V68H81.83V53ZM46,20.5a4,4,0,1,1,4,4A4,4,0,0,1,46,20.5Zm14.83,63h-22v-9h22Zm17,0h-13v-11a2,2,0,0,0-2-2h-26a2,2,0,0,0-2,2v11h-13v-46h56Z"/><path d="M38,60.5a8,8,0,1,0-8-8A8,8,0,0,0,38,60.5Zm0-12a4,4,0,1,1-4,4A4,4,0,0,1,38,48.5Z"/><path d="M62,60.5a8,8,0,1,0-8-8A8,8,0,0,0,62,60.5Zm0-12a4,4,0,1,1-4,4A4,4,0,0,1,62,48.5Z"/>
</svg>